<?xml version="1.0" encoding="UTF-8" standalone="no"?>
<!DOCTYPE svg PUBLIC "-//W3C//DTD SVG 20010904//EN"
              "http://www.w3.org/TR/2001/REC-SVG-20010904/DTD/svg10.dtd">

<svg xmlns="http://www.w3.org/2000/svg"
     width="3.6in" height="3.6in"
     viewBox="0 0 1080 1080">
  <path id="Selection #2"
        fill="#ff00df" stroke="#ff00df" stroke-width="1"
        d="M 719.00,656.00
           C 710.66,657.11 702.29,654.96 694.00,654.17
             694.00,654.17 657.00,653.00 657.00,653.00
             645.53,653.06 642.02,655.44 642.00,667.00
             641.97,683.90 641.21,701.24 643.34,718.00
             643.89,721.55 645.56,734.92 643.34,737.18
             640.91,739.48 636.87,738.62 634.00,738.28
             634.00,738.28 614.00,737.00 614.00,737.00
             614.00,737.00 599.00,736.00 599.00,736.00
             599.00,736.00 577.00,737.00 577.00,737.00
             577.00,737.00 560.00,737.83 560.00,737.83
             553.57,738.43 548.06,737.92 548.81,730.00
             548.81,730.00 548.81,716.00 548.81,716.00
             548.81,716.00 550.00,702.00 550.00,702.00
             550.00,702.00 551.00,668.00 551.00,668.00
             551.00,668.00 552.00,651.00 552.00,651.00
             552.00,651.00 552.00,596.00 552.00,596.00
             552.00,596.00 551.00,581.00 551.00,581.00
             551.00,581.00 549.00,529.00 549.00,529.00
             549.00,529.00 548.05,519.00 548.05,519.00
             548.05,519.00 548.05,505.00 548.05,505.00
             548.04,503.04 547.85,500.53 549.57,499.17
             551.38,497.75 555.74,498.00 558.00,498.00
             558.00,498.00 565.00,498.00 565.00,498.00
             565.00,498.00 581.00,499.00 581.00,499.00
             581.00,499.00 648.00,499.00 648.00,499.00
             648.00,499.00 660.00,498.00 660.00,498.00
             660.00,498.00 669.00,498.00 669.00,498.00
             669.00,498.00 702.00,496.00 702.00,496.00
             712.19,495.88 726.20,490.91 729.47,505.00
             730.08,507.61 730.00,510.34 730.00,513.00
             730.00,513.00 730.00,527.00 730.00,527.00
             730.00,527.00 734.42,559.00 734.42,559.00
             734.81,561.70 736.25,569.55 734.94,571.77
             732.62,575.47 719.11,572.34 715.00,571.77
             715.00,571.77 674.00,568.00 674.00,568.00
             674.00,568.00 656.00,568.00 656.00,568.00
             651.61,568.01 642.98,567.82 642.54,574.02
             642.39,576.17 643.71,578.19 645.23,579.58
             649.10,583.15 655.05,583.64 660.00,584.24
             673.40,586.03 686.62,584.31 700.00,584.24
             704.05,583.89 716.52,581.10 718.98,584.24
             720.22,586.17 720.00,589.93 720.00,592.00
             720.00,592.00 719.00,614.00 719.00,614.00
             719.00,614.00 719.00,656.00 719.00,656.00 Z" />
  <path id="Selection #1"
        fill="#ff00df" stroke="#ff00df" stroke-width="1"
        d="M 386.24,280.93
           C 394.02,278.67 402.13,280.90 410.00,280.93
             410.00,280.93 434.00,280.93 434.00,280.93
             434.00,280.93 473.00,280.93 473.00,280.93
             473.00,280.93 490.00,280.00 490.00,280.00
             512.80,279.96 530.78,279.36 552.00,289.97
             574.56,301.25 591.53,322.43 597.35,347.00
             600.68,361.08 600.16,370.76 600.00,385.00
             599.82,399.92 594.52,419.07 587.13,432.00
             572.09,458.29 547.18,469.96 518.00,472.09
             513.57,472.41 512.06,473.16 507.00,472.96
             507.00,472.96 488.00,471.86 488.00,471.86
             484.75,471.86 480.91,472.13 479.02,475.23
             477.69,477.41 477.97,482.39 478.00,485.00
             478.00,485.00 479.92,509.00 479.92,509.00
             480.16,511.82 481.34,516.29 479.92,518.69
             477.99,521.54 474.75,520.59 472.00,520.28
             472.00,520.28 455.00,519.00 455.00,519.00
             455.00,519.00 407.00,519.00 407.00,519.00
             401.80,519.06 390.43,521.66 386.43,518.26
             381.93,514.43 384.93,501.52 385.00,496.00
             385.00,496.00 385.00,482.00 385.00,482.00
             385.00,482.00 386.00,463.00 386.00,463.00
             386.00,463.00 387.00,446.00 387.00,446.00
             387.00,446.00 388.00,426.00 388.00,426.00
             388.00,426.00 388.00,363.00 388.00,363.00
             388.00,363.00 387.00,348.00 387.00,348.00
             387.00,348.00 386.00,321.00 386.00,321.00
             386.00,321.00 384.00,292.00 384.00,292.00
             383.93,287.55 382.50,283.60 386.24,280.93 Z
           M 482.11,352.60
           C 477.50,355.52 477.58,358.97 476.79,364.00
             475.61,372.96 475.65,382.03 476.79,391.00
             477.65,398.86 475.17,402.65 483.00,402.98
             490.16,403.28 497.72,401.54 502.61,395.90
             507.83,389.87 508.09,382.50 508.00,375.00
             507.82,360.21 497.35,349.22 482.11,352.60 Z" />
  <path id="Selection #1-inner"
        fill="#54124c" stroke="#54124c" stroke-width="1"
        d="M 482.11,352.60
         C 477.50,355.52 477.58,358.97 476.79,364.00
         475.61,372.96 475.65,382.03 476.79,391.00
         477.65,398.86 475.17,402.65 483.00,402.98
         490.16,403.28 497.72,401.54 502.61,395.90
         507.83,389.87 508.09,382.50 508.00,375.00
         507.82,360.21 497.35,349.22 482.11,352.60 Z" />
  <path id="Selection"
        fill="#54124c" stroke="#54124c" stroke-width="1"
        d="M 0.00,0.00
           C 0.00,0.00 1080.00,0.00 1080.00,0.00
             1080.00,0.00 1080.00,1080.00 1080.00,1080.00
             1080.00,1080.00 0.00,1080.00 0.00,1080.00
             0.00,1080.00 0.00,0.00 0.00,0.00 Z
           M 490.00,279.28
           C 481.08,280.57 471.99,279.90 463.00,280.00
             463.00,280.00 450.00,280.99 450.00,280.99
             450.00,280.99 436.00,280.00 436.00,280.00
             436.00,280.00 409.00,280.00 409.00,280.00
             409.00,280.00 390.00,280.00 390.00,280.00
             388.05,280.04 385.37,279.90 384.02,281.60
             382.73,283.24 382.96,287.90 383.01,290.00
             383.01,290.00 385.00,318.00 385.00,318.00
             385.00,318.00 386.00,336.00 386.00,336.00
             386.00,336.00 387.00,356.00 387.00,356.00
             387.00,356.00 387.00,375.00 387.00,375.00
             387.00,375.00 387.96,392.00 387.96,392.00
             387.96,392.00 387.96,408.00 387.96,408.00
             387.96,408.00 387.00,420.00 387.00,420.00
             387.00,420.00 387.00,432.00 387.00,432.00
             387.00,432.00 386.00,451.00 386.00,451.00
             386.00,451.00 385.00,471.00 385.00,471.00
             385.00,471.00 384.00,488.00 384.00,488.00
             384.00,488.00 384.00,512.00 384.00,512.00
             384.04,514.14 383.96,516.77 385.60,518.40
             387.52,520.32 391.46,519.99 394.00,520.00
             394.00,520.00 417.00,520.00 417.00,520.00
             417.00,520.00 432.00,519.04 432.00,519.04
             432.00,519.04 444.00,520.00 444.00,520.00
             444.00,520.00 459.00,520.00 459.00,520.00
             459.00,520.00 474.00,521.38 474.00,521.38
             481.88,521.95 481.03,517.06 481.00,511.00
             481.00,511.00 478.83,485.00 478.83,485.00
             478.44,480.88 477.09,476.81 481.23,473.93
             485.79,470.76 495.34,472.99 501.00,473.00
             524.18,473.04 542.76,472.22 563.00,458.92
             588.50,442.17 600.95,410.75 601.00,381.00
             601.00,381.00 601.00,367.00 601.00,367.00
             600.89,357.96 597.94,344.49 594.77,336.00
             590.69,325.07 583.84,314.52 575.72,306.17
             553.88,283.73 520.32,276.46 490.00,279.28 Z
           M 693.00,495.14
           C 693.00,495.14 678.00,496.17 678.00,496.17
             678.00,496.17 645.00,498.00 645.00,498.00
             645.00,498.00 630.00,498.99 630.00,498.99
             630.00,498.99 615.00,498.00 615.00,498.00
             615.00,498.00 582.00,498.00 582.00,498.00
             582.00,498.00 555.00,498.00 555.00,498.00
             552.87,498.02 549.49,497.74 548.02,499.60
             546.58,501.42 546.97,508.50 547.00,511.00
             547.00,511.00 548.00,524.00 548.00,524.00
             548.00,524.00 549.00,552.00 549.00,552.00
             549.00,552.00 550.00,568.00 550.00,568.00
             550.00,568.00 551.00,601.00 551.00,601.00
             551.00,601.00 552.00,625.00 552.00,625.00
             552.00,625.00 551.00,640.00 551.00,640.00
             551.00,640.00 551.00,658.00 551.00,658.00
             551.00,658.00 550.00,675.00 550.00,675.00
             550.00,675.00 549.00,708.00 549.00,708.00
             549.00,708.00 548.00,730.00 548.00,730.00
             548.04,732.14 547.96,734.77 549.60,736.40
             551.52,738.32 555.46,737.99 558.00,738.00
             558.00,738.00 573.00,738.00 573.00,738.00
             573.00,738.00 588.00,737.00 588.00,737.00
             588.00,737.00 606.00,737.00 606.00,737.00
             606.00,737.00 623.00,738.14 623.00,738.14
             627.60,738.13 638.86,740.20 642.71,738.14
             645.81,736.70 645.03,730.98 645.00,728.00
             645.00,728.00 643.00,702.00 643.00,702.00
             643.00,702.00 643.00,689.00 643.00,689.00
             643.00,689.00 642.00,667.00 642.00,667.00
             642.15,655.96 647.41,654.63 657.00,653.43
             657.00,653.43 672.00,654.00 672.00,654.00
             681.43,654.01 690.65,654.50 700.00,655.56
             703.80,656.21 716.53,658.50 718.98,655.56
             720.23,653.81 720.00,649.99 720.00,648.00
             720.00,648.00 720.00,610.00 720.00,610.00
             720.00,610.00 721.00,595.00 721.00,595.00
             721.03,592.03 721.55,585.74 719.40,583.60
             716.48,580.67 708.76,582.65 705.00,582.91
             705.00,582.91 667.00,584.00 667.00,584.00
             660.60,583.99 647.40,583.26 643.96,576.90
             638.96,567.65 657.51,567.95 662.00,568.00
             662.00,568.00 676.00,569.00 676.00,569.00
             676.00,569.00 714.00,572.42 714.00,572.42
             717.97,572.96 731.49,575.28 734.40,572.98
             736.49,571.33 736.06,566.40 735.83,564.00
             735.83,564.00 732.27,540.00 732.27,540.00
             732.27,540.00 730.00,511.00 730.00,511.00
             729.98,506.70 730.44,501.86 727.35,498.39
             724.09,494.73 719.45,495.01 715.00,495.14
             715.00,495.14 693.00,495.14 693.00,495.14 Z" />
</svg>
